/* XPM */
static char * home_xpm[] = {
"16 16 3 1",
" 	c none",
".	c #000000000000",
"X	c #861782078617",
"                ",
"       .        ",
"   .. ...       ",
"   ....X..      ",
"   ...XX ..     ",
"   ..XX   ..    ",
"  ..XX     ..   ",
" ...X      ...  ",
"  X.X ...  .XXX ",
"   .X . .X .X   ",
"   .X . .X .X   ",
"   .X . .X .X   ",
"   .X . .X .X   ",
"   .........X   ",
"    XXXXXXXXX   ",
"                "};
